<svg
 xmlns="http://www.w3.org/2000/svg"
 xmlns:xlink="http://www.w3.org/1999/xlink"
 width="27px" height="35px">
<path fill-rule="evenodd"  fill="rgb(230, 118, 66)"
 d="M21.000,10.098 L15.956,10.098 C14.288,10.098 12.930,8.739 12.930,7.069 L12.930,2.020 L3.026,2.020 C2.470,2.020 2.018,2.473 2.018,3.029 L2.018,27.969 C2.018,28.525 2.470,28.978 3.026,28.978 L10.000,28.978 L10.000,30.998 L3.026,30.998 C1.358,30.998 0.000,29.639 0.000,27.969 L0.000,3.029 C0.000,1.359 1.358,-0.000 3.026,-0.000 L13.939,-0.000 C14.207,-0.000 14.464,0.107 14.652,0.296 L22.722,8.374 C22.902,8.554 23.018,8.813 23.018,9.088 L23.018,17.969 L21.000,17.969 L21.000,10.098 ZM14.948,3.448 L14.948,7.069 C14.948,7.625 15.400,8.078 15.956,8.078 L19.574,8.078 L14.948,3.448 ZM15.000,21.031 L23.000,21.031 L23.000,25.969 L26.914,25.969 L18.962,34.388 L11.042,25.969 L15.000,25.969 L15.000,21.031 Z"/>
</svg>