<svg
 xmlns="http://www.w3.org/2000/svg"
 xmlns:xlink="http://www.w3.org/1999/xlink"
 width="13px" height="13px">
<path fill-rule="evenodd"  fill="rgb(230, 118, 66)"
 d="M12.659,9.594 L10.863,7.798 C10.222,7.157 9.131,7.414 8.875,8.247 C8.682,8.825 8.041,9.145 7.464,9.017 C6.181,8.697 4.449,7.029 4.128,5.682 C3.936,5.104 4.321,4.463 4.898,4.271 C5.732,4.014 5.988,2.924 5.347,2.282 L3.551,0.486 C3.038,0.037 2.268,0.037 1.819,0.486 L0.601,1.705 C-0.618,2.988 0.729,6.387 3.743,9.402 C6.758,12.417 10.158,13.828 11.440,12.545 L12.659,11.326 C13.108,10.813 13.108,10.043 12.659,9.594 Z"/>
</svg>