<svg
 xmlns="http://www.w3.org/2000/svg"
 xmlns:xlink="http://www.w3.org/1999/xlink"
 width="33px" height="33px">
<path fill-rule="evenodd"  fill="rgb(230, 118, 66)"
 d="M33.010,31.859 L31.865,33.011 L26.271,27.360 C23.479,29.938 19.768,31.525 15.678,31.525 C7.019,31.525 -0.000,24.468 -0.000,15.763 C-0.000,7.057 7.019,-0.000 15.678,-0.000 C24.337,-0.000 31.356,7.057 31.356,15.763 C31.356,19.770 29.857,23.417 27.407,26.198 L33.010,31.859 ZM15.678,1.528 C7.858,1.528 1.519,7.901 1.519,15.763 C1.519,23.624 7.858,29.997 15.678,29.997 C23.498,29.997 29.838,23.624 29.838,15.763 C29.838,7.901 23.498,1.528 15.678,1.528 Z"/>
</svg>